<svg width="12" height="11" viewBox="0 0 12 11" fill="none" xmlns="http://www.w3.org/2000/svg">
<path d="M1.0625 2.59375H10.8125C11 2.59375 11.1875 2.42969 11.1875 2.21875V1.28125C11.1875 1.09375 11 0.90625 10.8125 0.90625H1.0625C0.851562 0.90625 0.6875 1.09375 0.6875 1.28125V2.21875C0.6875 2.42969 0.851562 2.59375 1.0625 2.59375ZM1.0625 6.34375H10.8125C11 6.34375 11.1875 6.17969 11.1875 5.96875V5.03125C11.1875 4.84375 11 4.65625 10.8125 4.65625H1.0625C0.851562 4.65625 0.6875 4.84375 0.6875 5.03125V5.96875C0.6875 6.17969 0.851562 6.34375 1.0625 6.34375ZM1.0625 10.0938H10.8125C11 10.0938 11.1875 9.92969 11.1875 9.71875V8.78125C11.1875 8.59375 11 8.40625 10.8125 8.40625H1.0625C0.851562 8.40625 0.6875 8.59375 0.6875 8.78125V9.71875C0.6875 9.92969 0.851562 10.0938 1.0625 10.0938Z" fill="black"/>
</svg>
