<svg width="88" height="101" viewBox="0 0 88 101" fill="none" xmlns="http://www.w3.org/2000/svg">
<path d="M32.6 101H37.464L43.32 57.256L58.392 97.768H61.88L76.952 57.256L82.808 101H87.672L80.824 48.2H75.672L60.12 89.512L44.6 48.2H39.448L32.6 101Z" fill="black"/>
<path d="M28.648 55.024C31.9974 55.024 35.112 54.5333 37.992 53.552C40.8934 52.5707 43.4427 51.248 45.64 49.584L43.336 45.52C41.4587 47.0347 39.2827 48.1973 36.808 49.008C34.3334 49.8187 31.7094 50.224 28.936 50.224C25.5867 50.224 22.5147 49.648 19.72 48.496C16.9467 47.344 14.536 45.744 12.488 43.696C10.44 41.6267 8.85069 39.2267 7.72002 36.496C6.61069 33.744 6.05602 30.7893 6.05602 27.632C6.05602 24.4533 6.61069 21.4987 7.72002 18.768C8.85069 16.0373 10.44 13.648 12.488 11.6C14.536 9.53067 16.9467 7.92 19.72 6.768C22.5147 5.616 25.5867 5.04 28.936 5.04C31.7094 5.04 34.3334 5.44533 36.808 6.256C39.2827 7.06666 41.4587 8.22933 43.336 9.744L45.64 5.68C43.4214 3.99466 40.8614 2.672 37.96 1.712C35.0587 0.730665 31.9547 0.239998 28.648 0.239998C24.68 0.239998 21 0.933331 17.608 2.32C14.2374 3.70666 11.2827 5.648 8.74402 8.144C6.22669 10.6187 4.26402 13.52 2.85602 16.848C1.44802 20.176 0.744019 23.7707 0.744019 27.632C0.744019 31.4933 1.44802 35.088 2.85602 38.416C4.26402 41.744 6.22669 44.656 8.74402 47.152C11.2614 49.6267 14.216 51.5573 17.608 52.944C21 54.3307 24.68 55.024 28.648 55.024Z" fill="black"/>
</svg>
